<svg width="23" height="19" viewBox="0 0 23 19" fill="none" xmlns="http://www.w3.org/2000/svg">
<path d="M22.2627 18.3031H18.0517C16.5845 18.3031 15.3026 17.2539 14.9425 15.7481L11.1605 0H15.3291C16.7911 0 18.0729 1.04915 18.4331 2.54405L22.2627 18.3031Z" fill="#1E1E1E"/>
<path d="M0 18.3031H7.24081C8.41142 18.3031 9.48669 17.6344 10.0482 16.5527L13.5282 9.88811H6.32975C5.16444 9.88811 4.09448 10.5513 3.52771 11.6222L0 18.3031Z" fill="#1E1E1E"/>
<path d="M0.0582655 8.42038H4.86782C6.03843 8.42038 7.11369 7.75176 7.67516 6.66999L11.1605 0H6.38802C5.22801 0 4.15274 0.663194 3.58598 1.73409L0.0582655 8.42038Z" fill="#1E1E1E"/>
</svg>
