<svg width="2225" height="603" viewBox="0 0 2225 603" fill="none" xmlns="http://www.w3.org/2000/svg">
<path d="M1761.58 161.04C1747.75 147.21 1729 139.44 1709.44 139.44H1615.71C1613.74 139.44 1612.15 137.85 1612.15 135.88V87.33C1612.15 85.36 1610.55 83.77 1608.59 83.77H1526.87C1524.9 83.77 1523.31 85.37 1523.31 87.33V329.17C1523.31 348.73 1531.08 367.48 1544.91 381.31L1660.3 496.7C1674.13 510.53 1692.88 518.3 1712.44 518.3H1805.79C1808.04 518.3 1809.87 516.47 1809.87 514.22V434.15C1809.87 431.59 1811.95 429.51 1814.51 429.51H1895.01C1896.98 429.51 1898.57 427.91 1898.57 425.95V328.57C1898.57 309.01 1890.8 290.26 1876.97 276.43L1761.58 161.04ZM1809.72 424.87C1809.72 427.43 1807.64 429.51 1805.08 429.51H1631.76C1620.93 429.51 1612.15 420.73 1612.15 409.9V231.8C1612.15 229.83 1613.74 228.24 1615.71 228.24H1790.11C1800.94 228.24 1809.72 237.02 1809.72 247.85V424.87Z" fill="#F2F2F2"/>
<path d="M1153.81 433.05V514.72C1153.81 516.7 1152.21 518.3 1150.23 518.3H1042.42C1022.87 518.3 1004.12 510.53 990.3 496.71L874.93 381.34C861.09 367.5 853.32 348.73 853.32 329.16V231.81C853.32 229.83 854.92 228.23 856.86 228.23H937.19C939.86 228.23 942.03 226.06 942.03 223.39V143.02C942.03 141.08 943.59 139.48 945.57 139.48H1150.15C1152.13 139.48 1153.73 141.08 1153.73 143.02V224.73C1153.73 226.71 1152.13 228.31 1150.15 228.31H946.95C944.28 228.31 942.11 230.48 942.11 233.15V409.87C942.11 420.7 950.89 429.48 961.72 429.48H1150.23C1152.2 429.48 1153.81 431.09 1153.81 433.06V433.05Z" fill="#F2F2F2"/>
<path d="M1506.46 429.47H1330.92C1320.09 429.47 1311.31 420.69 1311.31 409.85V142.98C1311.31 141.01 1309.71 139.42 1307.74 139.42H1226.06C1224.09 139.42 1222.5 141.01 1222.5 142.98V329.16C1222.5 348.72 1230.27 367.47 1244.1 381.3L1359.49 496.69C1373.32 510.52 1392.08 518.29 1411.63 518.29H1506.46C1508.43 518.29 1510.03 516.69 1510.03 514.73V433.04C1510.03 431.07 1508.43 429.48 1506.46 429.48" fill="#F2F2F2"/>
<path d="M2220.58 138.91H2156.41C2136.85 138.91 2118.1 146.68 2104.27 160.51L1988.88 275.9C1975.05 289.73 1967.28 308.49 1967.28 328.04V514.22C1967.28 516.18 1968.87 517.78 1970.84 517.78H2052.52C2054.49 517.78 2056.09 516.18 2056.09 514.22V247.34C2056.09 236.5 2064.87 227.72 2075.7 227.72H2220.58C2222.55 227.72 2224.14 226.12 2224.14 224.16V142.47C2224.14 140.5 2222.55 138.91 2220.58 138.91Z" fill="#F2F2F2"/>
<path d="M139.68 139.68V0H317.23C333.46 0 349.02 6.41 360.55 17.83L559.53 215.11C577.11 232.54 587.01 256.28 587.01 281.04V463.05H447.99V163.75C447.99 150.46 437.21 139.68 423.92 139.68H139.68Z" fill="#F2F2F2"/>
<path d="M139.68 139.68H0V332.3C0 348.53 6.41 364.09 17.83 375.62L215.11 574.6C232.54 592.18 256.28 602.08 281.04 602.08H447.98V463.06H163.75C150.46 463.06 139.68 452.28 139.68 438.99V139.68Z" fill="#F2F2F2"/>
</svg>
