<svg width="20" height="20" viewBox="0 0 20 20" fill="none" xmlns="http://www.w3.org/2000/svg">
<path fill-rule="evenodd" clip-rule="evenodd" d="M10.001 1.27051C15.3752 1.27074 20.0007 5.04189 20.001 10C20.0009 14.9583 15.3754 18.7293 10.001 18.7295C4.62638 18.7295 5.69342e-05 14.9585 0 10C0.000303621 5.04174 4.62652 1.27051 10.001 1.27051ZM12.5146 13.6045C11.7107 13.6722 10.8674 13.7109 10.001 13.7109C9.13422 13.7109 8.29062 13.6722 7.48633 13.6045C7.64413 14.1235 7.83359 14.5937 8.04688 15.0039C8.71144 16.2819 9.45352 16.7282 10.001 16.7285C10.5484 16.7277 11.2919 16.2813 11.9561 15.0039C12.1692 14.5939 12.3569 14.1232 12.5146 13.6045ZM2.64941 12.6396C3.36981 14.0522 4.65173 15.2393 6.29297 15.9648C6.2863 15.9522 6.27907 15.9395 6.27246 15.9268C5.88005 15.172 5.56631 14.295 5.34668 13.3359C4.62026 13.2101 3.94838 13.0556 3.34863 12.875C3.10771 12.8024 2.87389 12.7233 2.64941 12.6396ZM17.3516 12.6396C17.1274 12.7232 16.8939 12.8025 16.6533 12.875C16.0533 13.0557 15.3811 13.21 14.6543 13.3359C14.4347 14.2947 14.1227 15.1722 13.7305 15.9268C13.7239 15.9394 13.7157 15.9522 13.709 15.9648C15.3499 15.2393 16.6312 14.052 17.3516 12.6396ZM10.001 8.28906C8.9653 8.28906 7.97855 8.34615 7.07031 8.44434C7.01331 8.94188 6.98244 9.46232 6.98242 10C6.98243 10.5375 7.01336 11.0582 7.07031 11.5557C7.9786 11.6537 8.96529 11.7109 10.001 11.7109C11.0363 11.7109 12.0227 11.6536 12.9307 11.5557C12.9876 11.0582 13.0205 10.5375 13.0205 10C13.0205 9.46228 12.9877 8.94191 12.9307 8.44434C12.0227 8.34619 11.0363 8.28908 10.001 8.28906ZM5.0293 8.7627C4.63276 8.84694 4.26305 8.93945 3.92578 9.04102C3.16403 9.27047 2.61923 9.52406 2.28809 9.75977C2.13178 9.87112 2.05867 9.95351 2.02441 10C2.05857 10.0465 2.13123 10.1295 2.28809 10.2412C2.61921 10.4769 3.16396 10.7305 3.92578 10.96C4.263 11.0615 4.63282 11.1531 5.0293 11.2373C4.99761 10.8322 4.98242 10.4187 4.98242 10C4.98243 9.58119 4.99758 9.16791 5.0293 8.7627ZM14.9717 8.7627C15.0034 9.16793 15.0205 9.58116 15.0205 10C15.0205 10.4187 15.0034 10.8322 14.9717 11.2373C15.3685 11.1531 15.7387 11.0616 16.0762 10.96C16.838 10.7304 17.3828 10.477 17.7139 10.2412C17.8712 10.1291 17.9446 10.0463 17.9785 10C17.9445 9.95366 17.8708 9.87161 17.7139 9.75977C17.3828 9.52403 16.838 9.27052 16.0762 9.04102C15.7386 8.93935 15.3686 8.847 14.9717 8.7627ZM6.29297 4.03418C4.65168 4.75957 3.36998 5.94792 2.64941 7.36035C2.87377 7.27687 3.10786 7.19851 3.34863 7.12598C3.94842 6.94533 4.62022 6.79009 5.34668 6.66406C5.56632 5.7053 5.88015 4.82775 6.27246 4.07324C6.2792 4.06028 6.28616 4.04711 6.29297 4.03418ZM13.7305 4.07324C14.1227 4.82771 14.4347 5.70538 14.6543 6.66406C15.3811 6.79014 16.0533 6.94523 16.6533 7.12598C16.8938 7.19843 17.1275 7.27698 17.3516 7.36035C16.6311 5.9482 15.3499 4.76055 13.709 4.03516C13.7158 4.04799 13.7238 4.06037 13.7305 4.07324ZM10.001 3.27051C9.45361 3.27077 8.71136 3.71857 8.04688 4.99609C7.83385 5.40582 7.645 5.87626 7.4873 6.39453C8.29124 6.32675 9.1346 6.28906 10.001 6.28906C10.867 6.28908 11.71 6.32679 12.5137 6.39453C12.356 5.87636 12.169 5.40577 11.9561 4.99609C11.2919 3.71883 10.5483 3.2713 10.001 3.27051Z" fill="black"/>
</svg>
