<svg width="20" height="20" viewBox="0 0 20 20" fill="none" xmlns="http://www.w3.org/2000/svg">
<path fill-rule="evenodd" clip-rule="evenodd" d="M10 0C15.5228 0 19.9999 4.47726 20 10C20 15.5228 15.5228 20 10 20C4.47737 19.9997 0 15.5227 0 10C0.000131931 4.47742 4.47745 0.000255626 10 0ZM14.499 5.15137L8.74316 6.79297C7.79956 7.06219 7.06209 7.79952 6.79297 8.74316L5.15137 14.499C5.09075 14.7127 5.28822 14.9104 5.50195 14.8496L11.2578 13.208C12.2015 12.9388 12.9389 12.2005 13.208 11.2568L14.8496 5.50195C14.9106 5.28803 14.7129 5.09046 14.499 5.15137Z" fill="black"/>
</svg>
