<svg width="24" height="20" viewBox="0 0 24 20" fill="none" xmlns="http://www.w3.org/2000/svg">
<path d="M8.41596 11.6264L6.88579 13.1543C7.69128 14.6923 9.30211 15.7412 11.1579 15.7416C12.4262 15.7416 13.5781 15.2562 14.4405 14.4554L15.3052 13.6525L18.2006 16.7724L17.3359 17.5742C15.7175 19.0769 13.5436 19.9998 11.1591 20C7.28691 19.9995 3.98418 17.5751 2.67895 14.1622L2.60909 14.2344L0.833808 12.4602L0 11.6253L4.20798 7.41728L8.41596 11.6264Z" fill="black"/>
<path d="M12.8473 0.0183831C16.7098 0.263034 19.8493 2.88831 20.938 6.37388L21.017 6.30516L23.4566 9.0723L18.9898 13.0065L15.0555 8.53972L16.4379 7.32337L16.675 7.11377C15.9669 5.53076 14.4267 4.38343 12.577 4.26645C11.1154 4.17427 9.76545 4.74126 8.81454 5.7176L7.99219 6.56172L4.94329 3.59185L5.76565 2.74658C7.54642 0.918273 10.0938 -0.155704 12.8473 0.0183831Z" fill="black"/>
</svg>
