<svg width="20" height="20" viewBox="0 0 20 20" fill="none" xmlns="http://www.w3.org/2000/svg">
<path fill-rule="evenodd" clip-rule="evenodd" d="M2.2383 9.64279C1.14978 14.9465 0.228442 19.4465 0.191031 19.6429L0.123047 20L3.13783 19.9654L6.15261 19.9307L6.61651 17.6732C6.87167 16.4315 7.15161 15.0818 7.23843 14.6739L7.39645 13.9321L10.0641 13.9312C12.2745 13.9304 12.914 13.8866 13.7956 13.6753C16.8123 12.952 18.9971 10.8976 19.7124 8.11153C19.9978 6.99979 19.8985 4.76909 19.5154 3.68689C18.8201 1.72231 17.5607 0.617792 15.5239 0.186021C14.8687 0.047086 13.4363 0.00387034 9.44217 0.00219331L4.21758 0L2.2383 9.64279ZM8.87379 6.85299C8.67706 7.80206 8.48601 8.7092 8.44911 8.86878C8.38268 9.15671 8.3939 9.15903 9.85253 9.15903C12.7908 9.15903 14.0183 8.38708 13.7897 6.68296C13.6438 5.59522 12.9968 5.26574 10.8527 5.18692L9.23164 5.12745L8.87379 6.85299Z" fill="black"/>
</svg>
