<svg width="24" height="20" viewBox="0 0 24 20" fill="none" xmlns="http://www.w3.org/2000/svg">
<path fill-rule="evenodd" clip-rule="evenodd" d="M12.4533 1.20703C14.1028 1.29068 15.6315 1.83005 16.9191 2.69922C16.8954 2.68326 16.8726 2.66613 16.8488 2.65039C20.3157 1.60263 23.001 1.63745 23.7785 2.9834L23.8331 3.08887C24.4744 4.42385 23.224 6.64839 20.7472 9.0127C20.7834 9.33691 20.8048 9.66613 20.8048 10L20.7931 10.4531C20.5572 15.1051 16.7107 18.8046 12.0001 18.8047L11.547 18.793C9.73875 18.7013 8.07499 18.0634 6.71595 17.042C3.46073 17.9575 0.966515 17.873 0.221811 16.584C-0.536999 15.2694 0.697519 13.0045 3.21498 10.5908C3.21915 10.6539 3.2251 10.7166 3.2306 10.7793C3.22111 10.6711 3.21271 10.5624 3.20716 10.4531L3.19544 10C3.19544 5.13737 7.13751 1.19531 12.0001 1.19531L12.4533 1.20703ZM17.5724 11.624C16.5633 12.3504 15.4619 13.0654 14.2863 13.7441L13.6769 14.0879C12.6292 14.6692 11.5899 15.1829 10.5812 15.6289C11.0354 15.743 11.5105 15.8047 12.0001 15.8047C14.6419 15.8046 16.8696 14.0391 17.5724 11.624ZM3.90736 13.4727C3.30899 14.1544 2.92823 14.7207 2.71205 15.1455C3.18138 15.1704 3.85012 15.1253 4.72181 14.9541C4.38168 14.4554 4.09261 13.9196 3.85951 13.3545C3.87569 13.3937 3.89063 13.4337 3.90736 13.4727ZM12.0001 4.19531C8.79436 4.19531 6.19544 6.79423 6.19544 10C6.19548 11.574 6.82264 13.0012 7.83998 14.0469C9.44244 13.4543 11.2158 12.6301 13.0363 11.5791C14.7757 10.5748 16.3154 9.50451 17.5958 8.45898C16.9205 6.00146 14.6721 4.19537 12.0001 4.19531ZM21.2872 4.4209C20.8052 4.39547 20.1132 4.443 19.2072 4.62598C19.1412 4.6393 19.0742 4.6544 19.007 4.66895C18.9921 4.64946 18.9761 4.63068 18.9611 4.61133C19.3506 5.11371 19.6873 5.65872 19.962 6.23926C19.9982 6.19922 20.0354 6.16082 20.0704 6.12109C20.6821 5.42771 21.0683 4.85113 21.2872 4.4209Z" fill="black"/>
</svg>
