<svg width="20" height="20" viewBox="0 0 20 20" fill="none" xmlns="http://www.w3.org/2000/svg">
<path fill-rule="evenodd" clip-rule="evenodd" d="M12.0183 2.24492C12.7418 2.43264 13.4247 2.72085 14.0536 3.09057L15.6445 1.50139L18.4986 4.35546L16.9076 5.94464C17.2779 6.57398 17.5653 7.25753 17.7533 7.98173H20V12.0183H17.7533C17.5654 12.7419 17.2776 13.4246 16.9076 14.0536L18.4986 15.6445L15.6445 18.4986L14.0536 16.9076C13.4246 17.2775 12.7419 17.5655 12.0183 17.7533V20H7.98173V17.7533C7.25816 17.5654 6.57531 17.2775 5.94643 16.9076L4.35725 18.4986L1.50318 15.6445L3.09236 14.0536C2.72252 13.4247 2.43454 12.7418 2.24671 12.0183H0V7.98173H2.24671C2.43463 7.25762 2.72217 6.57393 3.09236 5.94464L1.50318 4.35546L4.35725 1.50139L5.94643 3.09057C6.57525 2.72079 7.25825 2.43273 7.98173 2.24492V0H12.0183V2.24492ZM10.0009 6.78312C8.22461 6.78312 6.78349 8.2229 6.78312 9.9991C6.78312 11.7756 8.22439 13.2169 10.0009 13.2169C11.7773 13.2167 13.2169 11.7755 13.2169 9.9991C13.2165 8.22302 11.777 6.7833 10.0009 6.78312Z" fill="black"/>
</svg>
