<svg width="20" height="20" viewBox="0 0 20 20" fill="none" xmlns="http://www.w3.org/2000/svg">
<path d="M10.7173 12.5239L10.8716 12.5278C11.1889 12.5439 11.4959 12.5996 11.7876 12.6899C11.7948 12.6922 11.8019 12.6945 11.8091 12.6968C11.9165 12.7307 12.0215 12.7699 12.1245 12.813C12.1401 12.8195 12.1559 12.8258 12.1714 12.8325C12.3097 12.8927 12.4437 12.9608 12.5728 13.0366L12.6216 13.0659C12.6328 13.0728 12.6436 13.0804 12.6548 13.0874C12.7265 13.132 12.7974 13.1778 12.8657 13.2271L12.9204 13.2681C12.9267 13.2728 12.9327 13.278 12.939 13.2827C13.0226 13.3461 13.1033 13.4129 13.1812 13.4829C13.1945 13.4949 13.208 13.5068 13.2212 13.519C13.2477 13.5436 13.2735 13.5689 13.2993 13.5942C13.321 13.6155 13.3426 13.6369 13.3638 13.6587C13.3801 13.6755 13.3965 13.6923 13.4126 13.7095C13.4334 13.7317 13.4539 13.7542 13.4741 13.7769C13.6627 13.9882 13.8271 14.221 13.9644 14.4712C13.9678 14.4775 13.9717 14.4835 13.9751 14.4897C14.0542 14.6359 14.1237 14.7878 14.1831 14.9448C14.1891 14.9607 14.1949 14.9767 14.2007 14.9927C14.2364 15.0911 14.2679 15.1914 14.2954 15.2935C14.3001 15.311 14.3046 15.3286 14.3091 15.3462C14.384 15.6415 14.4252 15.9505 14.4253 16.269V18.814H0.000488281V16.27C0.000488281 14.2013 1.67693 12.5241 3.74561 12.5239H10.7173Z" fill="black"/>
<path d="M16.2534 12.5239C18.3223 12.5239 19.9995 14.2012 19.9995 16.27V18.814H16.4253V16.269C16.4251 14.8379 15.9004 13.5297 15.0347 12.5239H16.2534Z" fill="black"/>
<path d="M7.21338 1.18604C8.33938 1.18613 9.37677 1.56354 10.2085 2.19678C10.2342 2.21631 10.2594 2.23633 10.2847 2.25635C10.3367 2.29759 10.3877 2.34004 10.438 2.3833C10.4545 2.39746 10.4715 2.41092 10.4878 2.42529C10.5407 2.47197 10.5922 2.51999 10.6431 2.56885C10.6568 2.58209 10.6714 2.59451 10.6851 2.60791L10.7134 2.63623C10.8376 2.76046 10.9544 2.892 11.0649 3.02881C11.0819 3.04973 11.0982 3.07109 11.1147 3.09229C11.1502 3.13768 11.1853 3.18334 11.2192 3.22998C11.2444 3.26453 11.2692 3.29926 11.2935 3.33447C11.3166 3.36816 11.3385 3.40273 11.3608 3.43701C11.3867 3.47662 11.4133 3.51577 11.438 3.55615C11.4741 3.61506 11.5079 3.67534 11.5415 3.73584C11.5662 3.78023 11.5894 3.82539 11.6128 3.87061C11.6374 3.9183 11.6629 3.96558 11.686 4.01416C11.7038 4.0515 11.72 4.08959 11.7368 4.12744C11.7602 4.18003 11.7826 4.23308 11.8042 4.28662C11.8146 4.31234 11.8255 4.33784 11.8354 4.36377C11.8594 4.42624 11.8813 4.48956 11.9028 4.55322C11.9133 4.58412 11.9242 4.61483 11.9341 4.646C11.9548 4.71178 11.9736 4.77828 11.9917 4.84521C12.0058 4.89734 12.0193 4.94965 12.0317 5.00244C12.044 5.05455 12.0554 5.10694 12.0659 5.15967C12.0753 5.20629 12.0833 5.25321 12.0913 5.30029C12.0986 5.34284 12.1066 5.38532 12.1128 5.42822C12.1207 5.48295 12.1272 5.53797 12.1333 5.59326C12.1374 5.63055 12.1398 5.66804 12.1431 5.70557C12.1475 5.75684 12.1529 5.80815 12.1558 5.85986C12.1586 5.91076 12.1594 5.96188 12.1606 6.01318C12.1617 6.05442 12.1645 6.09573 12.1646 6.13721L12.1577 6.38135C12.153 6.47752 12.1444 6.57282 12.1343 6.66748C12.1314 6.69459 12.1278 6.72156 12.1245 6.74854C12.1164 6.81441 12.1069 6.87978 12.0962 6.94482C12.0908 6.97753 12.0846 7.00999 12.0786 7.04248C12.0684 7.09777 12.0584 7.15289 12.0464 7.20752C12.0389 7.2412 12.0311 7.27469 12.0229 7.30811C12.0079 7.37014 11.9915 7.43158 11.9741 7.49268C11.9668 7.51847 11.9594 7.5442 11.9517 7.56982C11.8735 7.82878 11.7753 8.07874 11.6577 8.31787C11.6492 8.33525 11.6401 8.35236 11.6313 8.36963C11.5965 8.43837 11.5598 8.5059 11.522 8.57275C11.5153 8.58456 11.5083 8.59617 11.5015 8.60791C10.646 10.0896 9.04725 11.0882 7.21338 11.0884C4.47905 11.0884 2.26221 8.87154 2.26221 6.13721C2.26228 3.40294 4.47909 1.18604 7.21338 1.18604Z" fill="black"/>
<path d="M12.7886 1.18604C15.5227 1.18627 17.7387 3.40308 17.7388 6.13721C17.7388 8.75547 15.7065 10.8974 13.1333 11.0747C12.8921 10.9606 12.6425 10.8609 12.3843 10.7808C13.4902 9.54986 14.1645 7.92224 14.1646 6.13721C14.1645 4.22191 13.3895 2.4872 12.1362 1.22998C12.3496 1.20191 12.5675 1.18604 12.7886 1.18604Z" fill="black"/>
</svg>
