<svg width="20" height="20" viewBox="0 0 20 20" fill="none" xmlns="http://www.w3.org/2000/svg">
<path d="M13.5044 12.5239L13.6587 12.5278C13.9761 12.5439 14.283 12.5996 14.5747 12.6899C14.5819 12.6922 14.589 12.6945 14.5962 12.6968C14.7036 12.7307 14.8087 12.7699 14.9116 12.813C14.9272 12.8195 14.943 12.8258 14.9585 12.8325C15.0968 12.8927 15.2308 12.9608 15.3599 13.0366L15.4087 13.0659C15.42 13.0728 15.4307 13.0804 15.4419 13.0874C15.5136 13.132 15.5845 13.1778 15.6528 13.2271L15.7075 13.2681C15.7138 13.2728 15.7198 13.278 15.7261 13.2827C15.8097 13.3461 15.8904 13.4129 15.9683 13.4829C15.9816 13.4949 15.9951 13.5068 16.0083 13.519C16.0348 13.5436 16.0606 13.5689 16.0864 13.5942C16.1081 13.6155 16.1297 13.6369 16.1509 13.6587C16.1673 13.6755 16.1836 13.6923 16.1997 13.7095C16.2205 13.7317 16.241 13.7542 16.2612 13.7769C16.4498 13.9882 16.6142 14.221 16.7515 14.4712C16.7549 14.4775 16.7588 14.4835 16.7622 14.4897C16.8413 14.6359 16.9108 14.7878 16.9702 14.9448C16.9762 14.9607 16.982 14.9767 16.9878 14.9927C17.0235 15.0911 17.055 15.1914 17.0825 15.2935C17.0872 15.311 17.0917 15.3286 17.0962 15.3462C17.1711 15.6415 17.2123 15.9505 17.2124 16.269V18.814H2.7876V16.27C2.7876 14.2013 4.46404 12.5241 6.53271 12.5239H13.5044Z" fill="black"/>
<path d="M10.0005 1.18604C11.1265 1.18613 12.1639 1.56354 12.9956 2.19678C13.0213 2.21631 13.0465 2.23633 13.0718 2.25635C13.1238 2.29759 13.1748 2.34004 13.2251 2.3833C13.2416 2.39746 13.2586 2.41092 13.2749 2.42529C13.3278 2.47197 13.3794 2.51999 13.4302 2.56885C13.444 2.58209 13.4585 2.59451 13.4722 2.60791L13.5005 2.63623C13.6247 2.76046 13.7415 2.892 13.8521 3.02881C13.869 3.04973 13.8853 3.07109 13.9019 3.09229C13.9373 3.13768 13.9724 3.18334 14.0063 3.22998C14.0315 3.26453 14.0563 3.29926 14.0806 3.33447C14.1037 3.36816 14.1256 3.40273 14.1479 3.43701C14.1738 3.47662 14.2004 3.51577 14.2251 3.55615C14.2612 3.61506 14.295 3.67534 14.3286 3.73584C14.3533 3.78023 14.3765 3.82539 14.3999 3.87061C14.4245 3.9183 14.45 3.96558 14.4731 4.01416C14.4909 4.0515 14.5071 4.08959 14.5239 4.12744C14.5473 4.18003 14.5697 4.23308 14.5913 4.28662C14.6017 4.31234 14.6126 4.33784 14.6226 4.36377C14.6465 4.42624 14.6684 4.48956 14.6899 4.55322C14.7004 4.58412 14.7113 4.61483 14.7212 4.646C14.742 4.71178 14.7608 4.77828 14.7788 4.84521C14.7929 4.89734 14.8065 4.94965 14.8188 5.00244C14.8311 5.05455 14.8425 5.10694 14.853 5.15967C14.8624 5.20629 14.8704 5.25321 14.8784 5.30029C14.8857 5.34284 14.8937 5.38532 14.8999 5.42822C14.9078 5.48295 14.9144 5.53797 14.9204 5.59326C14.9245 5.63055 14.9269 5.66804 14.9302 5.70557C14.9346 5.75684 14.94 5.80815 14.9429 5.85986C14.9457 5.91076 14.9465 5.96188 14.9478 6.01318C14.9488 6.05442 14.9517 6.09573 14.9517 6.13721L14.9448 6.38135C14.9402 6.47752 14.9315 6.57282 14.9214 6.66748C14.9185 6.69459 14.915 6.72156 14.9116 6.74854C14.9035 6.81441 14.894 6.87978 14.8833 6.94482C14.8779 6.97753 14.8717 7.00999 14.8657 7.04248C14.8555 7.09777 14.8455 7.15289 14.8335 7.20752C14.8261 7.2412 14.8182 7.27469 14.8101 7.30811C14.795 7.37014 14.7786 7.43158 14.7612 7.49268C14.7539 7.51847 14.7465 7.5442 14.7388 7.56982C14.6606 7.82878 14.5624 8.07874 14.4448 8.31787C14.4363 8.33525 14.4272 8.35236 14.4185 8.36963C14.3837 8.43837 14.3469 8.5059 14.3091 8.57275C14.3024 8.58456 14.2954 8.59617 14.2886 8.60791C13.4331 10.0896 11.8344 11.0882 10.0005 11.0884C7.26616 11.0884 5.04932 8.87154 5.04932 6.13721C5.04939 3.40294 7.2662 1.18604 10.0005 1.18604Z" fill="black"/>
</svg>
