<svg width="23" height="20" viewBox="0 0 23 20" fill="none" xmlns="http://www.w3.org/2000/svg">
<path fill-rule="evenodd" clip-rule="evenodd" d="M9.06127 0.994446C9.90611 0.99458 12.0613 0.994446 12.0613 0.994446C12.0613 0.994446 12.0613 3.18262 12.0613 3.99445H19.0613C19.9303 3.99458 22.0613 3.99445 22.0613 3.99445C22.0613 3.99445 22.0613 6.20678 22.0613 6.99445V15.9944C22.0612 16.7188 22.0613 18.9944 22.0613 18.9944C22.0613 18.9944 19.9934 18.9943 19.0613 18.9944H18.615C18.6339 18.9944 18.6528 18.9948 18.6716 18.9944H18.8054C18.8221 18.9934 18.8386 18.9958 18.8552 18.9944C18.8732 18.9929 18.8911 18.9963 18.9089 18.9944C18.9866 18.9867 19.0638 19.0076 19.1394 18.9944C18.9879 19.0209 18.8314 18.9912 18.6716 18.9944H18.615L4.98998 18.9935L4.98314 18.9925L4.89818 18.9896C4.21983 18.9691 2.80783 18.9896 2.80783 18.9896C2.80783 18.9896 2.40312 17.597 2.21166 17.1273L2.20189 17.0989C2.17544 17.0332 2.15124 16.9662 2.12963 16.8978L1.02416 13.4017C0.78455 12.6428 0 10.1155 0 10.1155H2.06127V3.99445C2.06127 3.16988 2.06127 0.994446 2.06127 0.994446C2.06127 0.994446 4.22898 0.994446 5.06127 0.994446H9.06127ZM2.21166 17.1273C2.22565 17.1616 2.24239 17.1952 2.25756 17.2288C2.23826 17.1861 2.21951 17.1427 2.20189 17.0989L2.21166 17.1273ZM11.572 9.12433L12.3689 11.4984H3.88549C3.57532 11.4984 2.51617 11.4984 2.51617 11.4984C2.51617 11.4984 2.82236 12.4505 2.93236 12.7991L4.03685 16.2952C4.10231 16.5022 4.2634 16.9935 4.2634 16.9935C4.2634 16.9935 4.77098 16.9934 4.98998 16.9935H18.615C18.9865 16.9932 20.0421 16.9935 20.0421 16.9935C20.0421 16.9935 18.4117 11.6761 17.3078 9.12433C17.3078 9.12433 16.8724 9.1246 16.6374 9.12433H11.572Z" fill="black"/>
</svg>
